<?xml version="1.0" encoding="utf-8"?>
<!-- Uploaded to: SVG Repo, www.svgrepo.com, Generator: SVG Repo Mixer Tools -->
<svg width="800px" height="800px" viewBox="-3 0 20 20" xmlns="http://www.w3.org/2000/svg">
  <g id="eraser" transform="translate(-5 -2)">
    <path id="secondary" fill="#2ca9bc" d="M17,3H7A1,1,0,0,0,6,4V15H18V4A1,1,0,0,0,17,3Z"/>
    <path id="primary" d="M17,21H7a1,1,0,0,1-1-1V4A1,1,0,0,1,7,3H17a1,1,0,0,1,1,1V20A1,1,0,0,1,17,21Zm1-1V15H6v5a1,1,0,0,0,1,1H17A1,1,0,0,0,18,20Z" fill="none" stroke="#000000" stroke-linecap="round" stroke-linejoin="round" stroke-width="2"/>
  </g>
</svg>